<?xml version="1.0" standalone="no"?><!DOCTYPE svg PUBLIC "-//W3C//DTD SVG 1.1//EN" "http://www.w3.org/Graphics/SVG/1.1/DTD/svg11.dtd"><svg t="1750166478394" class="icon" viewBox="0 0 1024 1024" version="1.1" xmlns="http://www.w3.org/2000/svg" p-id="3514" xmlns:xlink="http://www.w3.org/1999/xlink" width="200" height="200"><path d="M768 870.4H256a17.066667 17.066667 0 0 1-17.066667-17.066667v-85.333333c0-4.539733 1.792-8.874667 5.000534-12.066133L494.933333 504.9344v-53.060267l-189.917866 75.9808a17.134933 17.134933 0 0 1-21.6064-8.209066l-42.666667-85.333334a17.066667 17.066667 0 0 1 3.208533-19.694933L494.933333 163.601067V85.333333a17.1008 17.1008 0 0 1 29.1328-12.066133l57.053867 57.053867V85.333333a17.066667 17.066667 0 0 1 29.1328-12.066133l169.813333 169.813333a17.066667 17.066667 0 0 1 5.000534 12.066134V853.333333a17.066667 17.066667 0 0 1-17.066667 17.066667z m-494.933333-34.133333h477.866666V262.212267l-135.68-135.68v44.987733a17.066667 17.066667 0 0 1-29.1328 12.066133L529.066667 126.532267V170.666667c0 4.522667-1.792 8.874667-5.000534 12.066133l-247.296 247.296 30.139734 60.296533 198.7584-79.5136A17.066667 17.066667 0 0 1 529.066667 426.666667v85.333333c0 4.522667-1.792 8.874667-5.000534 12.066133L273.066667 775.0656V836.266667zM938.666667 972.8H85.333333a34.133333 34.133333 0 0 1 0-68.266667h853.333334a34.133333 34.133333 0 0 1 0 68.266667z" p-id="3515"></path></svg>